<?xml version="1.0" encoding="utf-8"?>
<!-- Generator: Adobe Illustrator 22.0.1, SVG Export Plug-In . SVG Version: 6.00 Build 0)  -->
<svg version="1.1" id="Layer_1" xmlns="http://www.w3.org/2000/svg" xmlns:xlink="http://www.w3.org/1999/xlink" x="0px" y="0px"
	 width="230px" height="100px" viewBox="0 0 230 100" style="enable-background:new 0 0 230 100;" xml:space="preserve">
<style type="text/css">
	.st0{fill:#FFFFFF;}
</style>
<g>
	<path class="st0" d="M60.5,29.7H36.7c-5.9,0-10.7,4.8-10.7,10.7v23.8C26,70.2,30.8,75,36.7,75h23.8c5.9,0,10.7-4.8,10.7-10.7V40.5
		C71.3,34.5,66.5,29.7,60.5,29.7z M65.4,57.9c-0.8,1.3-2.5,1.8-3.8,1l-12.9-7.5l-12.9,7.4c-1.3,0.8-3.1,0.3-3.8-1
		c-0.8-1.3-0.3-3.1,1-3.8l14.3-8.3c0.9-0.5,2-0.5,2.9,0.1l3,1.7v-1.4c0-0.4,0.3-0.7,0.7-0.7h4.1c0.4,0,0.7,0.3,0.7,0.7v4.6l5.8,3.4
		C65.7,54.8,66.1,56.6,65.4,57.9z"/>
	<g>
		<path class="st0" d="M113.5,45c1.3,1.3,2,3.4,2,6.1v9.8c0,0.4-0.3,0.7-0.7,0.7h-4c-0.4,0-0.7-0.3-0.7-0.7v-9
			c0-1.4-0.3-2.5-0.9-3.2c-0.6-0.7-1.5-1.1-2.6-1.1c-1.2,0-2.2,0.4-3,1.2s-1.1,2-1.1,3.6v8.5c0,0.4-0.3,0.7-0.7,0.7h-4
			c-0.4,0-0.7-0.3-0.7-0.7v-9c0-2.9-1.2-4.3-3.5-4.3c-1.2,0-2.2,0.4-2.9,1.2c-0.7,0.8-1.1,2-1.1,3.6v8.5c0,0.4-0.3,0.7-0.7,0.7h-4
			c-0.4,0-0.7-0.3-0.7-0.7V43.9c0-0.4,0.3-0.7,0.7-0.7H89c0.4,0,0.7,0.3,0.7,0.7v1.4c0.7-0.8,1.5-1.4,2.5-1.8s2.1-0.6,3.2-0.6
			c1.3,0,2.5,0.3,3.5,0.8c1,0.5,1.9,1.3,2.5,2.2c0.8-1,1.7-1.7,2.8-2.2c1.1-0.5,2.4-0.8,3.8-0.8C110.3,43,112.1,43.6,113.5,45z"/>
		<path class="st0" d="M123,60.6c-1.5-0.8-2.7-1.9-3.6-3.4c-0.9-1.4-1.3-3.1-1.3-4.9c0-1.8,0.4-3.4,1.3-4.9c0.9-1.4,2.1-2.5,3.6-3.4
			c1.5-0.8,3.3-1.2,5.2-1.2s3.6,0.4,5.2,1.2c1.5,0.8,2.7,1.9,3.6,3.4c0.9,1.4,1.3,3.1,1.3,4.9c0,1.8-0.4,3.4-1.3,4.9
			c-0.9,1.4-2,2.5-3.6,3.4c-1.5,0.8-3.2,1.2-5.2,1.2S124.5,61.4,123,60.6z M131.5,56.1c0.9-0.9,1.3-2.1,1.3-3.7
			c0-1.5-0.4-2.8-1.3-3.7s-2-1.4-3.4-1.4c-1.4,0-2.5,0.5-3.4,1.4c-0.9,0.9-1.3,2.1-1.3,3.7c0,1.5,0.4,2.8,1.3,3.7
			c0.9,0.9,2,1.4,3.4,1.4C129.5,57.4,130.6,57,131.5,56.1z"/>
		<path class="st0" d="M158.4,43.7L151,61.1c-0.1,0.3-0.4,0.4-0.6,0.4h-4.6c-0.3,0-0.5-0.2-0.6-0.4l-7.3-17.4
			c-0.1-0.2,0.1-0.5,0.3-0.5h4.5c0.3,0,0.5,0.2,0.6,0.4l4.9,12l5.1-12c0.1-0.3,0.4-0.4,0.6-0.4h4.1
			C158.3,43.2,158.5,43.5,158.4,43.7z"/>
		<path class="st0" d="M177.1,53.9h-13.6c0.3,1.1,0.8,2,1.8,2.7c0.9,0.7,2.1,1,3.5,1c1,0,1.8-0.1,2.5-0.4c0.6-0.3,1.3-0.6,1.8-1.1
			c0.1-0.1,0.4-0.1,0.5,0l2.2,2.3c0.2,0.3,0.2,0.7,0,0.9c-1.7,1.7-4.1,2.5-7.1,2.5c-2.1,0-3.9-0.4-5.5-1.2c-1.6-0.8-2.8-1.9-3.7-3.4
			c-0.9-1.4-1.3-3.1-1.3-4.9c0-1.8,0.4-3.4,1.3-4.8s2-2.6,3.5-3.4c1.5-0.8,3.1-1.2,5-1.2c1.8,0,3.4,0.4,4.9,1.2
			c1.4,0.8,2.6,1.9,3.4,3.3c0.8,1.4,1.2,3.1,1.2,5c0,0.1,0,0.5-0.1,1.2C177.3,53.8,177.2,53.9,177.1,53.9z M164.9,48
			c-0.8,0.7-1.3,1.6-1.5,2.8h9c-0.2-1.2-0.7-2.1-1.5-2.8c-0.8-0.7-1.8-1-3-1C166.7,47,165.7,47.3,164.9,48z"/>
		<path class="st0" d="M209,45c1.3,1.3,2,3.4,2,6.1v9.8c0,0.4-0.3,0.7-0.7,0.7h-4c-0.4,0-0.7-0.3-0.7-0.7v-9c0-1.4-0.3-2.5-0.9-3.2
			c-0.6-0.7-1.5-1.1-2.6-1.1c-1.2,0-2.2,0.4-3,1.2c-0.7,0.8-1.1,2-1.1,3.6v8.5c0,0.4-0.3,0.7-0.7,0.7h-4c-0.4,0-0.7-0.3-0.7-0.7v-9
			c0-2.9-1.2-4.3-3.5-4.3c-1.2,0-2.2,0.4-2.9,1.2s-1.1,2-1.1,3.6v8.5c0,0.4-0.3,0.7-0.7,0.7h-4c-0.4,0-0.7-0.3-0.7-0.7V43.9
			c0-0.4,0.3-0.7,0.7-0.7h3.7c0.4,0,0.7,0.3,0.7,0.7v1.4c0.7-0.8,1.5-1.4,2.5-1.8s2.1-0.6,3.2-0.6c1.3,0,2.5,0.3,3.5,0.8
			c1,0.5,1.9,1.3,2.5,2.2c0.8-1,1.7-1.7,2.8-2.2c1.1-0.5,2.4-0.8,3.8-0.8C205.8,43,207.6,43.6,209,45z"/>
	</g>
</g>
</svg>
